<svg xmlns="http://www.w3.org/2000/svg" viewBox="0 0 64 64">
  <rect width="64" height="64" fill="#c5e878"/>
  <ellipse cx="32" cy="55.2" rx="18" ry="2.4" fill="#6f9d47" opacity=".55"/>
  <path d="M18 45.8h28l3.6 7.1H14.4Z" fill="#0d1711"/>
  <path d="M13.6 52h36.8v4.1H13.6Z" fill="#0d1711"/>
  <path d="M17.2 49.1h29.6M17 53.7h30" fill="none" stroke="#8fbd53" stroke-width="1.5" stroke-linecap="round"/>
  <circle cx="32" cy="27.3" r="22.2" fill="#eef8d7" stroke="#0d1711" stroke-width="2.4"/>
  <circle cx="32" cy="27.3" r="19.2" fill="#c5e878" opacity=".42"/>
  <circle cx="32" cy="27.3" r="21" fill="none" stroke="#6f9d47" stroke-width="1.1"/>
  <path d="M16.8 27c.3-6.9 4.2-12.8 10.1-15.8" fill="none" stroke="#fff" stroke-width="2.4" stroke-linecap="round" opacity=".9"/>
  <path d="M32 9.2c-7.1 3.8-10.8 10.3-10.8 18.2S24.9 41.8 32 45.6c7.1-3.8 10.8-10.3 10.8-18.2S39.1 13 32 9.2Z" fill="#70462f" stroke="#0d1711" stroke-width="1.7" stroke-linejoin="round"/>
  <path d="M27 15.4c-2.3 3.6-3.4 7.6-3.4 12" fill="none" stroke="#b77b50" stroke-width="1.6" stroke-linecap="round"/>
  <path d="M32 15.8V40" fill="none" stroke="#281b14" stroke-width="2.2" stroke-linecap="round"/>
  <path d="M28.6 19.2h6.8m-7.5 4.1h8.2m-8.2 4.1h8.2m-8.2 4.1h8.2m-7.5 4.1h6.8" fill="none" stroke="#fff3d8" stroke-width="1.65" stroke-linecap="round"/>
</svg>
